<svg width="180" height="180" viewBox="0 0 180 180" fill="none" xmlns="http://www.w3.org/2000/svg">
  <rect width="180" height="180" rx="37" fill="#16a34a"/>
  <!-- Golf Ball -->
  <circle cx="90" cy="85" r="45" fill="white"/>
  <!-- Golf Ball Dimples -->
  <circle cx="75" cy="70" r="5" fill="#e5e5e5"/>
  <circle cx="90" cy="65" r="5" fill="#e5e5e5"/>
  <circle cx="105" cy="70" r="5" fill="#e5e5e5"/>
  <circle cx="70" cy="85" r="5" fill="#e5e5e5"/>
  <circle cx="85" cy="80" r="5" fill="#e5e5e5"/>
  <circle cx="100" cy="82" r="5" fill="#e5e5e5"/>
  <circle cx="110" cy="88" r="5" fill="#e5e5e5"/>
  <circle cx="78" cy="98" r="5" fill="#e5e5e5"/>
  <circle cx="93" cy="95" r="5" fill="#e5e5e5"/>
  <circle cx="105" cy="100" r="5" fill="#e5e5e5"/>
  <!-- Golf Tee -->
  <path d="M90 130 L85 155 Q90 160 95 155 L90 130" fill="#d97706"/>
  <!-- Golf Club -->
  <path d="M130 40 L55 115" stroke="#374151" stroke-width="4" stroke-linecap="round"/>
  <path d="M50 110 Q45 115 50 120 L60 125 Q65 120 60 115 Z" fill="#374151"/>
</svg>
